<svg width="960" height="960" version="1.1" xmlns="http://www.w3.org/2000/svg" desc="Created with imagetracer.js version 1.2.6" ><path fill="rgb(0,0,0)" stroke="rgb(0,0,0)" stroke-width="1" opacity="0" d="M 0 0 L 321 0.5 L 268.5 2 L 267.5 3 L 253.5 3 L 252.5 4 L 219.5 6 L 218.5 7 L 185.5 11 L 154.5 18 L 118.5 31 L 96.5 43 Q 73.9 57.4 57 77.5 Q 41.6 95.6 31 118.5 L 21 144.5 L 14 170.5 L 9 197.5 L 7 218.5 L 6 219.5 L 6 228.5 L 5 229.5 L 5 239.5 L 4 240.5 L 3 267.5 L 2 268.5 L 2 288.5 L 1 289.5 L 0.5 320 L 0 0 Z " /><path fill="rgb(0,0,0)" stroke="rgb(0,0,0)" stroke-width="1" opacity="0" d="M 639.5 0 L 960 0 L 960 319.5 L 959 319.5 L 958 268.5 L 957 267.5 L 957 253.5 L 956 252.5 L 954 219.5 L 953 218.5 L 953 211.5 L 952 210.5 L 949 185.5 L 942 154.5 L 929 118.5 L 917 96.5 Q 902.6 73.9 882.5 57 Q 864.4 41.6 841.5 31 L 815.5 21 L 789.5 14 L 762.5 9 L 741.5 7 L 740.5 6 L 731.5 6 L 730.5 5 L 692.5 3 L 691.5 2 L 671.5 2 L 670.5 1 L 639.5 1 L 639.5 0 Z " /><path fill="rgb(0,0,0)" stroke="rgb(0,0,0)" stroke-width="1" opacity="0" d="M 0.5 640 L 2 691.5 L 3 692.5 L 3 707.5 L 4 708.5 L 6 740.5 L 7 741.5 L 7 748.5 L 8 749.5 L 11 774.5 L 18 805.5 L 31 841.5 L 43 863.5 Q 57.4 886.1 77.5 903 Q 95.6 918.4 118.5 929 L 138.5 937 L 166.5 945 L 197.5 951 L 211.5 952 L 219.5 954 L 228.5 954 L 229.5 955 L 267.5 957 L 268.5 958 L 321 959.5 L 0 960 L 0.5 640 Z " /><path fill="rgb(0,0,0)" stroke="rgb(0,0,0)" stroke-width="1" opacity="0" d="M 959.5 640 L 960 960 L 639 959.5 L 691.5 958 L 692.5 957 L 706.5 957 L 707.5 956 L 740.5 954 L 741.5 953 L 748.5 953 L 749.5 952 L 774.5 949 L 805.5 942 L 841.5 929 L 863.5 917 Q 886.1 902.6 903 882.5 Q 918.4 864.4 929 841.5 L 938 818.5 L 945 793.5 L 951 762.5 L 953 741.5 L 954 740.5 L 954 731.5 L 955 730.5 L 957 692.5 L 958 691.5 L 959.5 640 Z " /><path fill="rgb(0,120,255)" stroke="rgb(0,120,255)" stroke-width="1" opacity="0.996078431372549" d="M 321.5 0 L 441 0.5 L 321.5 1 L 321.5 0 Z " /><path fill="rgb(0,120,255)" stroke="rgb(0,120,255)" stroke-width="1" opacity="0.996078431372549" d="M 519.5 0 L 639 0.5 L 519.5 1 L 519.5 0 Z " /><path fill="rgb(0,120,255)" stroke="rgb(0,120,255)" stroke-width="1" opacity="0.996078431372549" d="M 289.5 1 L 319 1.5 L 289.5 2 L 289.5 1 Z " /><path fill="rgb(0,120,255)" stroke="rgb(0,120,255)" stroke-width="1" opacity="0.996078431372549" d="M 641.5 1 L 671 1.5 L 641.5 2 L 641.5 1 Z " /><path fill="rgb(0,120,255)" stroke="rgb(0,120,255)" stroke-width="1" opacity="0.996078431372549" d="M 268.5 2 L 288 2.5 L 253.5 4 L 252.5 5 L 240.5 5 L 239.5 6 L 212.5 8 L 211.5 9 L 197.5 10 L 191.5 12 L 175.5 14 L 148.5 21 Q 98.1 36.1 66 69.5 Q 44.5 91.5 31 121.5 L 21 148.5 L 12 186.5 L 12 191.5 L 9 204.5 L 9 211.5 L 8 212.5 L 8 219.5 L 7 220.5 L 7 228.5 L 6 229.5 L 4 267.5 L 3 268.5 L 3 288.5 L 2 289.5 L 2 319.5 L 1 320.5 L 0.5 458 L 0 320.5 L 1 319.5 L 2 268.5 L 3 267.5 L 3 252.5 L 4 251.5 L 6 219.5 L 7 218.5 L 7 211.5 L 8 210.5 L 11 185.5 L 18 154.5 L 31 118.5 L 43 96.5 Q 57.4 73.9 77.5 57 Q 91.6 45.1 108.5 36 L 130.5 26 L 154.5 18 L 204.5 8 L 228.5 6 L 229.5 5 L 239.5 5 L 240.5 4 L 267.5 3 L 268.5 2 Z " /><path fill="rgb(0,120,255)" stroke="rgb(0,120,255)" stroke-width="1" opacity="0.996078431372549" d="M 672.5 2 L 691.5 2 L 692.5 3 L 706.5 3 L 707.5 4 L 719.5 4 L 720.5 5 L 748.5 7 L 749.5 8 L 762.5 9 L 789.5 14 L 815.5 21 Q 870.2 38.3 903 77.5 Q 920.7 98.3 932 125.5 L 942 154.5 L 951 197.5 L 953 218.5 L 954 219.5 L 954 228.5 L 955 229.5 L 955 239.5 L 956 240.5 L 957 267.5 L 958 268.5 L 958 288.5 L 959 289.5 L 959 319.5 L 960 320.5 L 960 459.5 L 959 459.5 L 959 320.5 L 958 319.5 L 958 289.5 L 957 288.5 L 957 268.5 L 956 267.5 L 954 229.5 L 953 228.5 L 953 220.5 L 952 219.5 L 952 212.5 L 951 211.5 L 951 204.5 L 950 203.5 L 948 186.5 L 939 148.5 L 929 121.5 Q 914.4 89.1 890.5 66 Q 859.1 35.4 811.5 21 L 779.5 13 L 774.5 13 L 755.5 9 L 731.5 7 L 730.5 6 L 720.5 6 L 719.5 5 L 707.5 5 L 706.5 4 L 672.5 3 L 672.5 2 Z " /><path fill="rgb(0,120,255)" stroke="rgb(0,120,255)" stroke-width="1" opacity="0.996078431372549" d="M 959.5 500 L 960 639.5 L 959 640.5 L 958 691.5 L 957 692.5 L 957 706.5 L 956 707.5 L 954 740.5 L 953 741.5 L 953 748.5 L 952 749.5 L 949 774.5 L 942 805.5 L 929 841.5 L 917 863.5 Q 902.6 886.1 882.5 903 Q 868.4 914.9 851.5 924 L 829.5 934 L 805.5 942 L 774.5 949 L 749.5 952 L 748.5 953 L 741.5 953 L 740.5 954 L 707.5 956 L 706.5 957 L 692.5 957 L 691.5 958 L 672.5 958 L 672.5 957 L 706.5 956 L 707.5 955 L 719.5 955 L 720.5 954 L 730.5 954 L 731.5 953 L 755.5 951 L 788.5 945 L 811.5 939 Q 861.9 923.9 894 890.5 Q 915.5 868.5 929 838.5 L 939 811.5 L 948 773.5 L 948 768.5 L 951 755.5 L 951 748.5 L 952 747.5 L 952 740.5 L 953 739.5 L 953 731.5 L 954 730.5 L 955 707.5 L 956 706.5 L 956 691.5 L 957 690.5 L 957 671.5 L 958 670.5 L 958 640.5 L 959 639.5 L 959.5 500 Z " /><path fill="rgb(0,120,255)" stroke="rgb(0,120,255)" stroke-width="1" opacity="0.996078431372549" d="M 0.5 502 L 1 639.5 L 2 640.5 L 2 670.5 L 3 671.5 L 3 691.5 L 4 692.5 L 6 730.5 L 7 731.5 L 7 739.5 L 8 740.5 L 8 747.5 L 9 748.5 L 9 755.5 Q 12 763 12 773.5 L 21 811.5 L 31 838.5 Q 45.6 870.9 69.5 894 Q 100.9 924.6 148.5 939 L 171.5 945 L 198.5 950 L 211.5 951 L 212.5 952 L 239.5 954 L 240.5 955 L 252.5 955 L 253.5 956 L 288 957.5 L 268.5 958 L 267.5 957 L 240.5 956 L 239.5 955 L 229.5 955 L 228.5 954 L 219.5 954 L 211.5 952 L 197.5 951 L 166.5 945 L 138.5 937 Q 88 919.5 57 882.5 Q 39.3 861.7 28 834.5 L 18 805.5 L 9 762.5 L 7 741.5 L 6 740.5 L 6 731.5 L 5 730.5 L 5 720.5 L 4 719.5 L 3 692.5 L 2 691.5 L 2 671.5 L 1 670.5 L 1 640.5 L 0 639.5 L 0.5 502 Z " /><path fill="rgb(0,120,255)" stroke="rgb(0,120,255)" stroke-width="1" opacity="0.996078431372549" d="M 289.5 958 L 319 958.5 L 289.5 959 L 289.5 958 Z " /><path fill="rgb(0,120,255)" stroke="rgb(0,120,255)" stroke-width="1" opacity="0.996078431372549" d="M 641.5 958 L 671 958.5 L 641.5 959 L 641.5 958 Z " /><path fill="rgb(0,120,255)" stroke="rgb(0,120,255)" stroke-width="1" opacity="0.996078431372549" d="M 321.5 959 L 442 959.5 L 321.5 960 L 321.5 959 Z " /><path fill="rgb(0,120,255)" stroke="rgb(0,120,255)" stroke-width="1" opacity="0.996078431372549" d="M 518.5 959 L 639 959.5 L 518.5 960 L 518.5 959 Z " /><path fill="rgb(0,120,255)" stroke="rgb(0,120,255)" stroke-width="1" opacity="1" d="M 441.5 0 L 640.5 1 L 641.5 2 L 671.5 2 L 672.5 3 L 706.5 4 L 707.5 5 L 719.5 5 L 720.5 6 L 730.5 6 L 731.5 7 L 740.5 7 L 748.5 9 L 762.5 10 L 804.5 19 L 838.5 31 Q 870.9 45.6 894 69.5 Q 918 94 932 128.5 L 941 155.5 L 951 204.5 L 953 228.5 L 954 229.5 L 954 239.5 L 955 240.5 L 955 252.5 L 956 253.5 L 957 288.5 L 958 289.5 L 958 319.5 L 959 320.5 L 959 459.5 L 960 460.5 L 960 499.5 L 959 500.5 L 959 639.5 L 958 640.5 L 958 670.5 L 957 671.5 L 957 690.5 L 956 691.5 L 956 706.5 L 955 707.5 L 954 730.5 L 953 731.5 L 953 739.5 L 952 740.5 L 952 747.5 L 951 748.5 L 951 755.5 L 950 756.5 L 948 773.5 L 939 811.5 L 929 838.5 Q 914.4 870.9 890.5 894 Q 866 918 831.5 932 L 804.5 941 L 755.5 951 L 731.5 953 L 730.5 954 L 720.5 954 L 719.5 955 L 707.5 955 L 706.5 956 L 672.5 957 L 671.5 958 L 641.5 958 L 640.5 959 L 442.5 960 L 441.5 959 L 319.5 959 L 318.5 958 L 288.5 958 L 287.5 957 L 268.5 957 L 267.5 956 L 229.5 954 L 228.5 953 L 220.5 953 L 219.5 952 L 212.5 952 L 211.5 951 L 186.5 948 L 148.5 939 L 119.5 928 Q 88.3 913.7 66 890.5 Q 42 866 28 831.5 L 19 804.5 L 9 755.5 L 7 731.5 L 6 730.5 L 6 720.5 L 5 719.5 L 5 707.5 L 4 706.5 L 3 671.5 L 2 670.5 L 2 640.5 L 1 639.5 L 1 502.5 L 0 501.5 L 0 458.5 L 1 457.5 L 1 320.5 L 2 319.5 L 2 289.5 L 3 288.5 L 3 268.5 L 4 267.5 L 6 229.5 L 7 228.5 L 7 220.5 L 8 219.5 L 8 212.5 L 9 211.5 L 9 204.5 Q 12 197 12 186.5 L 21 148.5 L 31 121.5 Q 45.6 89.1 69.5 66 Q 91.5 44.5 121.5 31 L 155.5 19 L 197.5 10 L 204.5 10 L 205.5 9 L 228.5 7 L 229.5 6 L 239.5 6 L 240.5 5 L 267.5 4 L 268.5 3 L 287.5 3 L 288.5 2 L 318.5 2 L 319.5 1 L 440.5 1 L 441.5 0 Z M 162 292 Q 166 489 263 594 Q 307 642 373 668 L 403 678 L 433 685 L 457 688 L 458 689 L 466 689 L 467 690 L 497 691 L 498 692 L 523 692 L 523 692 L 523 549 L 550 553 L 579 563 Q 606 575 627 594 Q 669 631 688 691 L 690 692 L 802 692 L 800 682 L 793 662 L 774 621 Q 754 586 728 558 Q 691 518 641 492 Q 638 493 639 490 Q 664 477 684 458 Q 720 426 745 383 Q 768 346 778 297 Q 778 292 778 292 L 675 292 Q 657 352 620 393 Q 600 416 574 432 L 547 445 L 526 450 L 523 450 L 523 292 L 420 292 L 420 569 Q 384 558 360 536 Q 343 521 330 504 Q 312 478 299 447 L 287 411 L 282 390 L 276 356 L 274 329 L 273 328 L 273 314 L 272 313 L 272 293 L 272 292 L 162 292 Z " /><path fill="rgb(198,225,255)" stroke="rgb(198,225,255)" stroke-width="1" opacity="1" d="M 271.5 292 L 272 300.5 L 271 300.5 L 271.5 292 Z " /><path fill="rgb(198,225,255)" stroke="rgb(198,225,255)" stroke-width="1" opacity="1" d="M 162.5 296 L 163 309.5 L 162 309.5 L 162.5 296 Z " /><path fill="rgb(198,225,255)" stroke="rgb(198,225,255)" stroke-width="1" opacity="1" d="M 272.5 313 L 273 320.5 L 272 320.5 L 272.5 313 Z " /><path fill="rgb(198,225,255)" stroke="rgb(198,225,255)" stroke-width="1" opacity="1" d="M 163.5 320 L 164 327.5 L 163 327.5 L 163.5 320 Z " /><path fill="rgb(198,225,255)" stroke="rgb(198,225,255)" stroke-width="1" opacity="1" d="M 273.5 328 L 274 332.5 L 273 332.5 L 273.5 328 Z " /><path fill="rgb(198,225,255)" stroke="rgb(198,225,255)" stroke-width="1" opacity="1" d="M 164.5 334 L 165 339.5 L 164 339.5 L 164.5 334 Z " /><path fill="rgb(198,225,255)" stroke="rgb(198,225,255)" stroke-width="1" opacity="1" d="M 274.5 339 L 275 342.5 L 274 342.5 L 274.5 339 Z " /><path fill="rgb(198,225,255)" stroke="rgb(198,225,255)" stroke-width="1" opacity="1" d="M 656.5 339 L 656 340.5 L 654.5 343 L 655 341.5 L 656.5 339 Z " /><path fill="rgb(198,225,255)" stroke="rgb(198,225,255)" stroke-width="1" opacity="1" d="M 165.5 346 L 166 350.5 L 165 350.5 L 165.5 346 Z " /><path fill="rgb(198,225,255)" stroke="rgb(198,225,255)" stroke-width="1" opacity="1" d="M 275.5 348 L 276 351.5 L 275 351.5 L 275.5 348 Z " /><path fill="rgb(198,225,255)" stroke="rgb(198,225,255)" stroke-width="1" opacity="1" d="M 650.5 350 L 649.5 352 L 650.5 350 Z " /><path fill="rgb(198,225,255)" stroke="rgb(198,225,255)" stroke-width="1" opacity="1" d="M 166.5 355 L 167 359.5 L 166 359.5 L 166.5 355 Z " /><path fill="rgb(198,225,255)" stroke="rgb(198,225,255)" stroke-width="1" opacity="1" d="M 647.5 355 L 646.5 357 L 647.5 355 Z " /><path fill="rgb(198,225,255)" stroke="rgb(198,225,255)" stroke-width="1" opacity="1" d="M 276.5 356 L 277 358.5 L 276 358.5 L 276.5 356 Z " /><path fill="rgb(198,225,255)" stroke="rgb(198,225,255)" stroke-width="1" opacity="1" d="M 645.5 358 L 644.5 360 L 645.5 358 Z " /><path fill="rgb(198,225,255)" stroke="rgb(198,225,255)" stroke-width="1" opacity="1" d="M 277.5 362 L 278 365.5 L 277 365.5 L 277.5 362 Z " /><path fill="rgb(198,225,255)" stroke="rgb(198,225,255)" stroke-width="1" opacity="1" d="M 167.5 364 L 168 367.5 L 167 367.5 L 167.5 364 Z " /><path fill="rgb(198,225,255)" stroke="rgb(198,225,255)" stroke-width="1" opacity="1" d="M 641.5 364 L 640.5 366 L 641.5 364 Z " /><path fill="rgb(198,225,255)" stroke="rgb(198,225,255)" stroke-width="1" opacity="1" d="M 639.5 367 L 638.5 369 L 639.5 367 Z " /><path fill="rgb(198,225,255)" stroke="rgb(198,225,255)" stroke-width="1" opacity="1" d="M 278.5 369 L 279 371.5 L 278 371.5 L 278.5 369 Z " /><path fill="rgb(198,225,255)" stroke="rgb(198,225,255)" stroke-width="1" opacity="1" d="M 637.5 370 L 636.5 372 L 637.5 370 Z " /><path fill="rgb(198,225,255)" stroke="rgb(198,225,255)" stroke-width="1" opacity="1" d="M 168.5 371 L 169 374.5 L 168 374.5 L 168.5 371 Z " /><path fill="rgb(198,225,255)" stroke="rgb(198,225,255)" stroke-width="1" opacity="1" d="M 634.5 374 L 633.5 376 L 634.5 374 Z " /><path fill="rgb(198,225,255)" stroke="rgb(198,225,255)" stroke-width="1" opacity="1" d="M 169.5 378 L 170 381.5 L 169 381.5 L 169.5 378 Z " /><path fill="rgb(198,225,255)" stroke="rgb(198,225,255)" stroke-width="1" opacity="1" d="M 631.5 378 L 630.5 380 L 631.5 378 Z " /><path fill="rgb(198,225,255)" stroke="rgb(198,225,255)" stroke-width="1" opacity="1" d="M 280.5 380 L 281 382.5 L 280 382.5 L 280.5 380 Z " /><path fill="rgb(198,225,255)" stroke="rgb(198,225,255)" stroke-width="1" opacity="1" d="M 628.5 382 L 626.5 385 L 628.5 382 Z " /><path fill="rgb(198,225,255)" stroke="rgb(198,225,255)" stroke-width="1" opacity="1" d="M 170.5 385 L 171 387.5 L 170 387.5 L 170.5 385 Z " /><path fill="rgb(198,225,255)" stroke="rgb(198,225,255)" stroke-width="1" opacity="1" d="M 281.5 385 L 282 387.5 L 281 387.5 L 281.5 385 Z " /><path fill="rgb(198,225,255)" stroke="rgb(198,225,255)" stroke-width="1" opacity="1" d="M 624.5 387 L 620.5 392 L 624.5 387 Z " /><path fill="rgb(198,225,255)" stroke="rgb(198,225,255)" stroke-width="1" opacity="1" d="M 741.5 387 L 740.5 389 L 741.5 387 Z " /><path fill="rgb(198,225,255)" stroke="rgb(198,225,255)" stroke-width="1" opacity="1" d="M 283.5 394 L 284 396.5 L 283 396.5 L 283.5 394 Z " /><path fill="rgb(198,225,255)" stroke="rgb(198,225,255)" stroke-width="1" opacity="1" d="M 736.5 395 L 735.5 397 L 736.5 395 Z " /><path fill="rgb(198,225,255)" stroke="rgb(198,225,255)" stroke-width="1" opacity="1" d="M 172.5 396 L 173 398.5 L 172 398.5 L 172.5 396 Z " /><path fill="rgb(198,225,255)" stroke="rgb(198,225,255)" stroke-width="1" opacity="1" d="M 616.5 396 L 604.5 409 L 616.5 396 Z " /><path fill="rgb(198,225,255)" stroke="rgb(198,225,255)" stroke-width="1" opacity="1" d="M 734.5 398 L 733.5 400 L 734.5 398 Z " /><path fill="rgb(198,225,255)" stroke="rgb(198,225,255)" stroke-width="1" opacity="1" d="M 729.5 405 L 728.5 407 L 729.5 405 Z " /><path fill="rgb(198,225,255)" stroke="rgb(198,225,255)" stroke-width="1" opacity="1" d="M 727.5 408 L 726.5 410 L 727.5 408 Z " /><path fill="rgb(198,225,255)" stroke="rgb(198,225,255)" stroke-width="1" opacity="1" d="M 175.5 411 L 176 413.5 L 175 413.5 L 175.5 411 Z " /><path fill="rgb(198,225,255)" stroke="rgb(198,225,255)" stroke-width="1" opacity="1" d="M 599.5 412 L 596.5 416 L 599.5 412 Z " /><path fill="rgb(198,225,255)" stroke="rgb(198,225,255)" stroke-width="1" opacity="1" d="M 724.5 412 L 722.5 415 L 724.5 412 Z " /><path fill="rgb(198,225,255)" stroke="rgb(198,225,255)" stroke-width="1" opacity="1" d="M 721.5 416 L 719.5 419 L 721.5 416 Z " /><path fill="rgb(198,225,255)" stroke="rgb(198,225,255)" stroke-width="1" opacity="1" d="M 592.5 418 L 591.5 420 L 592.5 418 Z " /><path fill="rgb(198,225,255)" stroke="rgb(198,225,255)" stroke-width="1" opacity="1" d="M 177.5 420 L 178 422.5 L 177 422.5 L 177.5 420 Z " /><path fill="rgb(198,225,255)" stroke="rgb(198,225,255)" stroke-width="1" opacity="1" d="M 588.5 421 L 587.5 423 L 588.5 421 Z " /><path fill="rgb(198,225,255)" stroke="rgb(198,225,255)" stroke-width="1" opacity="1" d="M 717.5 421 L 714.5 425 L 717.5 421 Z " /><path fill="rgb(198,225,255)" stroke="rgb(198,225,255)" stroke-width="1" opacity="1" d="M 584.5 424 L 583.5 426 L 584.5 424 Z " /><path fill="rgb(198,225,255)" stroke="rgb(198,225,255)" stroke-width="1" opacity="1" d="M 581.5 426 L 580.5 428 L 581.5 426 Z " /><path fill="rgb(198,225,255)" stroke="rgb(198,225,255)" stroke-width="1" opacity="1" d="M 712.5 427 L 708.5 432 L 712.5 427 Z " /><path fill="rgb(198,225,255)" stroke="rgb(198,225,255)" stroke-width="1" opacity="1" d="M 578.5 428 L 577.5 430 L 578.5 428 Z " /><path fill="rgb(198,225,255)" stroke="rgb(198,225,255)" stroke-width="1" opacity="1" d="M 575.5 430 L 574.5 432 L 575.5 430 Z " /><path fill="rgb(198,225,255)" stroke="rgb(198,225,255)" stroke-width="1" opacity="1" d="M 570.5 433 L 569.5 435 L 570.5 433 Z " /><path fill="rgb(198,225,255)" stroke="rgb(198,225,255)" stroke-width="1" opacity="1" d="M 704.5 436 L 683.5 458 L 704.5 436 Z " /><path fill="rgb(198,225,255)" stroke="rgb(198,225,255)" stroke-width="1" opacity="1" d="M 526.5 449 L 529 449.5 L 526.5 450 L 526.5 449 Z " /><path fill="rgb(198,225,255)" stroke="rgb(198,225,255)" stroke-width="1" opacity="1" d="M 679.5 460 L 675.5 465 L 679.5 460 Z " /><path fill="rgb(198,225,255)" stroke="rgb(198,225,255)" stroke-width="1" opacity="1" d="M 672.5 466 L 670.5 469 L 672.5 466 Z " /><path fill="rgb(198,225,255)" stroke="rgb(198,225,255)" stroke-width="1" opacity="1" d="M 667.5 470 L 665.5 473 L 667.5 470 Z " /><path fill="rgb(198,225,255)" stroke="rgb(198,225,255)" stroke-width="1" opacity="1" d="M 662.5 474 L 661.5 476 L 662.5 474 Z " /><path fill="rgb(198,225,255)" stroke="rgb(198,225,255)" stroke-width="1" opacity="1" d="M 313.5 477 L 314.5 479 L 313.5 477 Z " /><path fill="rgb(198,225,255)" stroke="rgb(198,225,255)" stroke-width="1" opacity="1" d="M 658.5 477 L 657.5 479 L 658.5 477 Z " /><path fill="rgb(198,225,255)" stroke="rgb(198,225,255)" stroke-width="1" opacity="1" d="M 655.5 479 L 654.5 481 L 655.5 479 Z " /><path fill="rgb(198,225,255)" stroke="rgb(198,225,255)" stroke-width="1" opacity="1" d="M 651.5 482 L 650.5 484 L 651.5 482 Z " /><path fill="rgb(198,225,255)" stroke="rgb(198,225,255)" stroke-width="1" opacity="1" d="M 317.5 484 L 318.5 486 L 317.5 484 Z " /><path fill="rgb(198,225,255)" stroke="rgb(198,225,255)" stroke-width="1" opacity="1" d="M 643.5 487 L 642.5 489 L 643.5 487 Z " /><path fill="rgb(198,225,255)" stroke="rgb(198,225,255)" stroke-width="1" opacity="1" d="M 320.5 489 L 321.5 491 L 320.5 489 Z " /><path fill="rgb(198,225,255)" stroke="rgb(198,225,255)" stroke-width="1" opacity="1" d="M 322.5 492 L 323.5 494 L 322.5 492 Z " /><path fill="rgb(198,225,255)" stroke="rgb(198,225,255)" stroke-width="1" opacity="1" d="M 324.5 495 L 325.5 497 L 324.5 495 Z " /><path fill="rgb(198,225,255)" stroke="rgb(198,225,255)" stroke-width="1" opacity="1" d="M 650.5 497 L 651.5 499 L 650.5 497 Z " /><path fill="rgb(198,225,255)" stroke="rgb(198,225,255)" stroke-width="1" opacity="1" d="M 326.5 498 L 327.5 500 L 326.5 498 Z " /><path fill="rgb(198,225,255)" stroke="rgb(198,225,255)" stroke-width="1" opacity="1" d="M 328.5 501 L 329.5 503 L 328.5 501 Z " /><path fill="rgb(198,225,255)" stroke="rgb(198,225,255)" stroke-width="1" opacity="1" d="M 662.5 504 L 663.5 506 L 662.5 504 Z " /><path fill="rgb(198,225,255)" stroke="rgb(198,225,255)" stroke-width="1" opacity="1" d="M 331.5 505 L 332.5 507 L 331.5 505 Z " /><path fill="rgb(198,225,255)" stroke="rgb(198,225,255)" stroke-width="1" opacity="1" d="M 667.5 507 L 668.5 509 L 667.5 507 Z " /><path fill="rgb(198,225,255)" stroke="rgb(198,225,255)" stroke-width="1" opacity="1" d="M 334.5 509 L 336.5 512 L 334.5 509 Z " /><path fill="rgb(198,225,255)" stroke="rgb(198,225,255)" stroke-width="1" opacity="1" d="M 670.5 509 L 671.5 511 L 670.5 509 Z " /><path fill="rgb(198,225,255)" stroke="rgb(198,225,255)" stroke-width="1" opacity="1" d="M 673.5 511 L 674.5 513 L 673.5 511 Z " /><path fill="rgb(198,225,255)" stroke="rgb(198,225,255)" stroke-width="1" opacity="1" d="M 676.5 513 L 677.5 515 L 676.5 513 Z " /><path fill="rgb(198,225,255)" stroke="rgb(198,225,255)" stroke-width="1" opacity="1" d="M 338.5 514 L 341.5 518 L 338.5 514 Z " /><path fill="rgb(198,225,255)" stroke="rgb(198,225,255)" stroke-width="1" opacity="1" d="M 680.5 516 L 681.5 518 L 680.5 516 Z " /><path fill="rgb(198,225,255)" stroke="rgb(198,225,255)" stroke-width="1" opacity="1" d="M 683.5 518 L 685.5 521 L 683.5 518 Z " /><path fill="rgb(198,225,255)" stroke="rgb(198,225,255)" stroke-width="1" opacity="1" d="M 687.5 521 L 689.5 524 L 687.5 521 Z " /><path fill="rgb(198,225,255)" stroke="rgb(198,225,255)" stroke-width="1" opacity="1" d="M 345.5 522 L 356.5 534 L 345.5 522 Z " /><path fill="rgb(198,225,255)" stroke="rgb(198,225,255)" stroke-width="1" opacity="1" d="M 215.5 525 L 216.5 527 L 215.5 525 Z " /><path fill="rgb(198,225,255)" stroke="rgb(198,225,255)" stroke-width="1" opacity="1" d="M 692.5 525 L 693.5 527 L 692.5 525 Z " /><path fill="rgb(198,225,255)" stroke="rgb(198,225,255)" stroke-width="1" opacity="1" d="M 697.5 529 L 699.5 532 L 697.5 529 Z " /><path fill="rgb(198,225,255)" stroke="rgb(198,225,255)" stroke-width="1" opacity="1" d="M 220.5 534 L 221.5 536 L 220.5 534 Z " /><path fill="rgb(198,225,255)" stroke="rgb(198,225,255)" stroke-width="1" opacity="1" d="M 703.5 534 L 707.5 539 L 703.5 534 Z " /><path fill="rgb(198,225,255)" stroke="rgb(198,225,255)" stroke-width="1" opacity="1" d="M 360.5 536 L 363.5 540 L 360.5 536 Z " /><path fill="rgb(198,225,255)" stroke="rgb(198,225,255)" stroke-width="1" opacity="1" d="M 366.5 541 L 368.5 544 L 366.5 541 Z " /><path fill="rgb(198,225,255)" stroke="rgb(198,225,255)" stroke-width="1" opacity="1" d="M 713.5 543 L 727.5 558 L 713.5 543 Z " /><path fill="rgb(198,225,255)" stroke="rgb(198,225,255)" stroke-width="1" opacity="1" d="M 226.5 544 L 227.5 546 L 226.5 544 Z " /><path fill="rgb(198,225,255)" stroke="rgb(198,225,255)" stroke-width="1" opacity="1" d="M 371.5 545 L 372.5 547 L 371.5 545 Z " /><path fill="rgb(198,225,255)" stroke="rgb(198,225,255)" stroke-width="1" opacity="1" d="M 374.5 547 L 375.5 549 L 374.5 547 Z " /><path fill="rgb(198,225,255)" stroke="rgb(198,225,255)" stroke-width="1" opacity="1" d="M 229.5 549 L 230.5 551 L 229.5 549 Z " /><path fill="rgb(198,225,255)" stroke="rgb(198,225,255)" stroke-width="1" opacity="1" d="M 377.5 549 L 378.5 551 L 377.5 549 Z " /><path fill="rgb(198,225,255)" stroke="rgb(198,225,255)" stroke-width="1" opacity="1" d="M 528.5 549 L 532 549.5 L 528.5 550 L 528.5 549 Z " /><path fill="rgb(198,225,255)" stroke="rgb(198,225,255)" stroke-width="1" opacity="1" d="M 535.5 550 L 538 550.5 L 535.5 551 L 535.5 550 Z " /><path fill="rgb(198,225,255)" stroke="rgb(198,225,255)" stroke-width="1" opacity="1" d="M 380.5 551 L 381.5 553 L 380.5 551 Z " /><path fill="rgb(198,225,255)" stroke="rgb(198,225,255)" stroke-width="1" opacity="1" d="M 231.5 552 L 232.5 554 L 231.5 552 Z " /><path fill="rgb(198,225,255)" stroke="rgb(198,225,255)" stroke-width="1" opacity="1" d="M 233.5 555 L 234.5 557 L 233.5 555 Z " /><path fill="rgb(198,225,255)" stroke="rgb(198,225,255)" stroke-width="1" opacity="1" d="M 235.5 558 L 236.5 560 L 235.5 558 Z " /><path fill="rgb(198,225,255)" stroke="rgb(198,225,255)" stroke-width="1" opacity="1" d="M 238.5 562 L 239.5 564 L 238.5 562 Z " /><path fill="rgb(198,225,255)" stroke="rgb(198,225,255)" stroke-width="1" opacity="1" d="M 731.5 562 L 735.5 567 L 731.5 562 Z " /><path fill="rgb(198,225,255)" stroke="rgb(198,225,255)" stroke-width="1" opacity="1" d="M 240.5 565 L 241.5 567 L 240.5 565 Z " /><path fill="rgb(198,225,255)" stroke="rgb(198,225,255)" stroke-width="1" opacity="1" d="M 243.5 569 L 244.5 571 L 243.5 569 Z " /><path fill="rgb(198,225,255)" stroke="rgb(198,225,255)" stroke-width="1" opacity="1" d="M 738.5 570 L 741.5 574 L 738.5 570 Z " /><path fill="rgb(198,225,255)" stroke="rgb(198,225,255)" stroke-width="1" opacity="1" d="M 246.5 573 L 248.5 576 L 246.5 573 Z " /><path fill="rgb(198,225,255)" stroke="rgb(198,225,255)" stroke-width="1" opacity="1" d="M 603.5 576 L 604.5 578 L 603.5 576 Z " /><path fill="rgb(198,225,255)" stroke="rgb(198,225,255)" stroke-width="1" opacity="1" d="M 743.5 576 L 745.5 579 L 743.5 576 Z " /><path fill="rgb(198,225,255)" stroke="rgb(198,225,255)" stroke-width="1" opacity="1" d="M 250.5 578 L 253.5 582 L 250.5 578 Z " /><path fill="rgb(198,225,255)" stroke="rgb(198,225,255)" stroke-width="1" opacity="1" d="M 606.5 578 L 607.5 580 L 606.5 578 Z " /><path fill="rgb(198,225,255)" stroke="rgb(198,225,255)" stroke-width="1" opacity="1" d="M 609.5 580 L 610.5 582 L 609.5 580 Z " /><path fill="rgb(198,225,255)" stroke="rgb(198,225,255)" stroke-width="1" opacity="1" d="M 747.5 581 L 748.5 583 L 747.5 581 Z " /><path fill="rgb(198,225,255)" stroke="rgb(198,225,255)" stroke-width="1" opacity="1" d="M 613.5 583 L 614.5 585 L 613.5 583 Z " /><path fill="rgb(198,225,255)" stroke="rgb(198,225,255)" stroke-width="1" opacity="1" d="M 255.5 584 L 259.5 589 L 255.5 584 Z " /><path fill="rgb(198,225,255)" stroke="rgb(198,225,255)" stroke-width="1" opacity="1" d="M 750.5 585 L 751.5 587 L 750.5 585 Z " /><path fill="rgb(198,225,255)" stroke="rgb(198,225,255)" stroke-width="1" opacity="1" d="M 617.5 586 L 618.5 588 L 617.5 586 Z " /><path fill="rgb(198,225,255)" stroke="rgb(198,225,255)" stroke-width="1" opacity="1" d="M 621.5 589 L 625.5 594 L 621.5 589 Z " /><path fill="rgb(198,225,255)" stroke="rgb(198,225,255)" stroke-width="1" opacity="1" d="M 753.5 589 L 754.5 591 L 753.5 589 Z " /><path fill="rgb(198,225,255)" stroke="rgb(198,225,255)" stroke-width="1" opacity="1" d="M 755.5 592 L 756.5 594 L 755.5 592 Z " /><path fill="rgb(198,225,255)" stroke="rgb(198,225,255)" stroke-width="1" opacity="1" d="M 263.5 593 L 279.5 610 L 263.5 593 Z " /><path fill="rgb(198,225,255)" stroke="rgb(198,225,255)" stroke-width="1" opacity="1" d="M 630.5 597 L 641.5 609 L 630.5 597 Z " /><path fill="rgb(198,225,255)" stroke="rgb(198,225,255)" stroke-width="1" opacity="1" d="M 763.5 604 L 764.5 606 L 763.5 604 Z " /><path fill="rgb(198,225,255)" stroke="rgb(198,225,255)" stroke-width="1" opacity="1" d="M 765.5 607 L 766.5 609 L 765.5 607 Z " /><path fill="rgb(198,225,255)" stroke="rgb(198,225,255)" stroke-width="1" opacity="1" d="M 644.5 612 L 647.5 616 L 644.5 612 Z " /><path fill="rgb(198,225,255)" stroke="rgb(198,225,255)" stroke-width="1" opacity="1" d="M 768.5 612 L 769.5 614 L 768.5 612 Z " /><path fill="rgb(198,225,255)" stroke="rgb(198,225,255)" stroke-width="1" opacity="1" d="M 284.5 613 L 288.5 618 L 284.5 613 Z " /><path fill="rgb(198,225,255)" stroke="rgb(198,225,255)" stroke-width="1" opacity="1" d="M 291.5 619 L 293.5 622 L 291.5 619 Z " /><path fill="rgb(198,225,255)" stroke="rgb(198,225,255)" stroke-width="1" opacity="1" d="M 650.5 619 L 652.5 622 L 650.5 619 Z " /><path fill="rgb(198,225,255)" stroke="rgb(198,225,255)" stroke-width="1" opacity="1" d="M 772.5 619 L 773.5 621 L 772.5 619 Z " /><path fill="rgb(198,225,255)" stroke="rgb(198,225,255)" stroke-width="1" opacity="1" d="M 296.5 623 L 298.5 626 L 296.5 623 Z " /><path fill="rgb(198,225,255)" stroke="rgb(198,225,255)" stroke-width="1" opacity="1" d="M 653.5 623 L 655.5 626 L 653.5 623 Z " /><path fill="rgb(198,225,255)" stroke="rgb(198,225,255)" stroke-width="1" opacity="1" d="M 301.5 627 L 302.5 629 L 301.5 627 Z " /><path fill="rgb(198,225,255)" stroke="rgb(198,225,255)" stroke-width="1" opacity="1" d="M 656.5 627 L 657.5 629 L 656.5 627 Z " /><path fill="rgb(198,225,255)" stroke="rgb(198,225,255)" stroke-width="1" opacity="1" d="M 305.5 630 L 306.5 632 L 305.5 630 Z " /><path fill="rgb(198,225,255)" stroke="rgb(198,225,255)" stroke-width="1" opacity="1" d="M 659.5 631 L 660.5 633 L 659.5 631 Z " /><path fill="rgb(198,225,255)" stroke="rgb(198,225,255)" stroke-width="1" opacity="1" d="M 312.5 635 L 313.5 637 L 312.5 635 Z " /><path fill="rgb(198,225,255)" stroke="rgb(198,225,255)" stroke-width="1" opacity="1" d="M 315.5 637 L 316.5 639 L 315.5 637 Z " /><path fill="rgb(198,225,255)" stroke="rgb(198,225,255)" stroke-width="1" opacity="1" d="M 318.5 639 L 319.5 641 L 318.5 639 Z " /><path fill="rgb(198,225,255)" stroke="rgb(198,225,255)" stroke-width="1" opacity="1" d="M 323.5 642 L 324.5 644 L 323.5 642 Z " /><path fill="rgb(198,225,255)" stroke="rgb(198,225,255)" stroke-width="1" opacity="1" d="M 666.5 642 L 667.5 644 L 666.5 642 Z " /><path fill="rgb(198,225,255)" stroke="rgb(198,225,255)" stroke-width="1" opacity="1" d="M 333.5 648 L 334.5 650 L 333.5 648 Z " /><path fill="rgb(198,225,255)" stroke="rgb(198,225,255)" stroke-width="1" opacity="1" d="M 670.5 649 L 671.5 651 L 670.5 649 Z " /><path fill="rgb(198,225,255)" stroke="rgb(198,225,255)" stroke-width="1" opacity="1" d="M 443.5 686 L 446 686.5 L 443.5 687 L 443.5 686 Z " /><path fill="rgb(198,225,255)" stroke="rgb(198,225,255)" stroke-width="1" opacity="1" d="M 450.5 687 L 453 687.5 L 450.5 688 L 450.5 687 Z " /><path fill="rgb(198,225,255)" stroke="rgb(198,225,255)" stroke-width="1" opacity="1" d="M 457.5 688 L 461 688.5 L 457.5 689 L 457.5 688 Z " /><path fill="rgb(198,225,255)" stroke="rgb(198,225,255)" stroke-width="1" opacity="1" d="M 466.5 689 L 471 689.5 L 466.5 690 L 466.5 689 Z " /><path fill="rgb(198,225,255)" stroke="rgb(198,225,255)" stroke-width="1" opacity="1" d="M 478.5 690 L 486 690.5 L 478.5 691 L 478.5 690 Z " /><path fill="rgb(198,225,255)" stroke="rgb(198,225,255)" stroke-width="1" opacity="1" d="M 688.5 690 L 689.5 691 L 802 691.5 L 689.5 692 L 688.5 690 Z " /><path fill="rgb(198,225,255)" stroke="rgb(198,225,255)" stroke-width="1" opacity="1" d="M 497.5 691 L 523 691.5 L 497.5 692 L 497.5 691 Z " /><path fill="rgb(255,255,255)" stroke="rgb(255,255,255)" stroke-width="1" opacity="1" d="M 162 292 L 270.5 292 L 271 292.5 L 271 300.5 L 272 301.5 L 273 332.5 L 274 333.5 L 274 342.5 L 275 343.5 L 275 351.5 L 276 352.5 L 278 371.5 L 286 408.5 L 294 434.5 Q 304.6 464.4 320 489.5 Q 335.5 514.5 356.5 534 Q 381.6 558.7 420 569 L 420 292 L 523 292 L 523 449.5 Q 523.1 450.6 528.5 450 Q 555.3 444.8 574.5 432 Q 598.3 416.8 617 396.5 Q 636.1 375.6 651 350.5 L 666 320.5 L 675 295.5 L 675 292 L 777.5 292 L 778 294.5 L 772 319.5 L 766 337.5 Q 756.7 362.2 744 383.5 Q 717.7 427.2 680.5 460 Q 660.9 477.4 638 491.5 Q 692.7 518.3 731 561.5 Q 779.4 613.1 802 690.5 L 689.5 691 L 680 666.5 L 668 643.5 Q 652.3 617.2 630.5 597 Q 608.6 576.4 579.5 563 L 551.5 553 L 523.5 548 L 523 691 L 486.5 691 L 485.5 690 L 471.5 690 L 470.5 689 L 446.5 687 L 404.5 678 L 371.5 667 Q 304.2 639.8 260 589.5 Q 209.6 532.9 185 450.5 L 178 424.5 L 170 384.5 L 170 378.5 L 167 363.5 L 167 355.5 L 166 354.5 L 166 346.5 L 165 345.5 L 164 320.5 L 163 319.5 L 163 296.5 L 162 292 Z " /></svg>